<?xml version="1.0" encoding="UTF-8"?>
<svg xmlns="http://www.w3.org/2000/svg" xmlns:xlink="http://www.w3.org/1999/xlink" width="1100" height="700" viewBox="0 0 1100 700">
<defs><filter id="glow" x="-60%" y="-60%" width="220%" height="220%"><feGaussianBlur stdDeviation="4" result="b"/><feMerge><feMergeNode in="b"/><feMergeNode in="SourceGraphic"/></feMerge></filter><pattern id="scan" width="4" height="8" patternUnits="userSpaceOnUse"><rect width="4" height="2" fill="#FF2D95" opacity="0.10"/></pattern><clipPath id="panelclip"><polygon points="100,60 960,60 1040,140 1040,600 1000,640 160,640 60,540 60,100"/></clipPath></defs>
<polygon points="100,60 960,60 1040,140 1040,600 1000,640 160,640 60,540 60,100" fill="#0B0F14" fill-opacity="0.58" stroke="#FF2D95" stroke-width="3" filter="url(#glow)"/>
<rect x="60" y="60" width="980" height="580" fill="url(#scan)" clip-path="url(#panelclip)"/>
<polygon points="114,74 950,74 1026,148 1026,594 992,626 172,626 74,530 74,112" fill="none" stroke="#FF2D95" stroke-width="1" opacity="0.30" stroke-dasharray="12 6"/>
<rect x="830" y="52" width="90" height="6" fill="#FF2D95"/>
<rect x="838" y="60" width="90" height="6" fill="#3AC9FF" opacity="0.6"/>
<polygon points="140,150 470,150 470,530 440,560 110,560 110,180" fill="#FF2D95" fill-opacity="0.05" stroke="#FF2D95" stroke-width="2" opacity="0.85"/>
<text x="290" y="212" font-family="Orbitron" font-size="22" font-weight="700" letter-spacing="6" fill="#FF2D95" fill-opacity="0.9" text-anchor="middle">DEPTH</text>
<line x1="180" y1="232" x2="400" y2="232" stroke="#FF2D95" stroke-width="1.5" opacity="0.4"/>
<line x1="785" y1="170" x2="785" y2="550" stroke="#FF2D95" stroke-width="1" opacity="0.2"/>
<line x1="540" y1="360" x2="1010" y2="360" stroke="#FF2D95" stroke-width="1" opacity="0.2"/>
<text x="986" y="620" font-family="Orbitron" font-size="13" font-weight="500" letter-spacing="5" fill="#FFFFFF" fill-opacity="0.35" text-anchor="end">UNABARA</text>
</svg>
